<?xml version="1.0" standalone="no"?>
<!DOCTYPE svg PUBLIC "-//W3C//DTD SVG 20010904//EN"
 "http://www.w3.org/TR/2001/REC-SVG-20010904/DTD/svg10.dtd">
<svg version="1.0" xmlns="http://www.w3.org/2000/svg"
 width="600.000000pt" height="305.000000pt" viewBox="0 0 600.000000 305.000000"
 preserveAspectRatio="xMidYMid meet">
<g transform="translate(0.000000,305.000000) scale(0.100000,-0.100000)"
fill="#e6e6e6" fill-rule="nonzero" stroke="none">
<path d="M584 2354 c3 -9 6 -88 6 -177 l0 -162 178 -98 c97 -54 213 -119 257
-143 44 -25 109 -61 145 -81 36 -20 71 -40 78 -45 9 -8 12 5 12 58 0 38 3 119
6 180 l7 111 -104 55 c-57 31 -156 84 -219 118 -63 34 -166 89 -227 122 -62
32 -115 63 -118 69 -10 15 -28 10 -21 -7z"/>
<path d="M860 1910 c-9 -6 -10 -10 -3 -10 6 0 15 5 18 10 8 12 4 12 -15 0z"/>
<path d="M1753 1907 c-66 -98 -82 -121 -263 -378 -63 -90 -119 -169 -123 -176
-5 -8 12 -41 46 -90 147 -215 220 -312 230 -306 6 3 7 1 3 -5 -6 -9 99 -180
124 -202 3 -3 15 -17 25 -33 l20 -28 198 -2 c172 -2 221 2 188 15 -7 3 -132
177 -245 343 -23 33 -44 62 -47 65 -3 3 -38 53 -77 112 -39 58 -77 109 -84
112 -11 5 -11 7 0 12 7 3 30 31 51 62 93 139 267 387 331 475 25 34 53 74 63
90 l17 27 -197 0 -198 0 -62 -93z"/>
<path d="M2084 1918 c-4 -7 -4 -10 1 -6 4 4 15 2 24 -5 14 -11 14 -10 2 6 -16
20 -18 21 -27 5z"/>
<path d="M1663 1717 c-8 -17 -8 -24 0 -24 7 0 13 11 13 24 2 29 0 29 -13 0z"/>
<path d="M1556 1563 c-6 -14 -5 -15 5 -6 7 7 10 15 7 18 -3 3 -9 -2 -12 -12z"/>
<path d="M1496 1463 c-6 -14 -5 -15 5 -6 7 7 10 15 7 18 -3 3 -9 -2 -12 -12z"/>
<path d="M1586 1117 c3 -10 9 -15 12 -12 3 3 0 11 -7 18 -10 9 -11 8 -5 -6z"/>
<path d="M1560 1106 c0 -2 8 -10 18 -17 15 -13 16 -12 3 4 -13 16 -21 21 -21
13z"/>
<path d="M590 1705 c5 -175 5 -175 30 -188 44 -23 485 -269 495 -277 37 -26
167 -91 156 -77 -11 13 -12 51 -7 184 l6 168 -102 54 c-57 30 -132 71 -168 91
-36 21 -108 60 -160 88 -52 28 -128 69 -169 91 -41 23 -77 41 -80 41 -3 0 -4
-79 -1 -175z"/>
<path d="M5038 1374 c-2 -141 0 -260 3 -266 4 -5 28 -8 55 -6 l48 3 -3 49 c-2
41 1 52 25 77 l27 28 16 -28 c9 -15 29 -51 45 -79 l29 -52 64 1 c34 1 63 4 63
6 0 5 -57 96 -111 174 l-38 56 70 69 c38 38 69 71 69 74 0 3 -27 3 -60 2 -57
-4 -62 -6 -110 -56 -50 -52 -85 -96 -77 -96 2 0 36 32 74 70 49 49 78 70 95
70 14 0 28 -3 31 -7 4 -3 -18 -32 -48 -64 -30 -32 -55 -62 -55 -68 0 -6 9 -19
19 -28 11 -9 17 -22 14 -29 -3 -8 2 -17 11 -20 9 -3 16 -11 16 -16 0 -6 16
-32 35 -58 19 -26 35 -50 35 -54 0 -3 -17 -6 -38 -6 -39 0 -72 23 -72 49 0 7
-4 9 -10 6 -14 -9 -12 8 3 25 10 12 9 12 -5 1 -14 -10 -17 -9 -23 11 -27 87
-104 54 -105 -44 0 -48 0 -48 -34 -48 -19 0 -37 4 -41 10 -3 5 -3 113 1 240
l7 230 34 0 34 0 -2 -121 c0 -66 2 -123 5 -126 6 -7 7 -2 9 169 l2 108 -52 0
-52 0 -3 -256z"/>
<path d="M2210 1351 l0 -250 190 0 190 0 0 50 0 50 -135 -3 -135 -3 0 55 0 55
120 -3 120 -3 0 50 0 51 -120 0 -120 0 0 53 0 52 132 0 131 0 0 45 0 45 -186
3 -187 2 0 -249z"/>
<path d="M3129 1508 c2 -35 6 -54 9 -44 3 15 6 16 14 5 7 -10 8 -9 3 6 -14 39
-15 50 -7 63 9 14 61 24 63 13 1 -3 2 -22 3 -41 3 -54 12 -62 62 -57 25 2 47
0 51 -6 3 -6 1 -7 -6 -3 -8 6 -10 0 -5 -18 6 -25 5 -26 -20 -16 -20 7 -25 7
-20 -1 4 -7 0 -9 -12 -5 -38 12 -47 -7 -48 -107 -1 -94 0 -96 26 -112 17 -10
37 -13 53 -9 20 5 24 3 19 -10 -3 -9 -1 -16 6 -16 7 0 6 -6 -4 -16 -9 -8 -21
-12 -27 -8 -7 4 -9 3 -6 -3 4 -6 -8 -9 -31 -7 -20 2 -38 4 -39 5 -2 1 -7 2
-12 3 -18 2 -52 46 -45 58 4 7 3 8 -4 4 -8 -5 -11 24 -10 99 0 58 -2 108 -6
112 -11 11 -7 -215 5 -240 23 -51 103 -71 175 -45 30 11 31 13 22 42 -5 17
-12 37 -14 45 -4 11 -7 12 -16 3 -16 -16 -53 -15 -65 1 -5 6 -11 48 -12 91 -1
44 -5 84 -7 88 -3 4 22 8 55 8 l61 0 0 41 0 40 -52 -2 -53 -3 0 52 0 52 -55 0
-55 0 4 -62z"/>
<path d="M4250 1517 c0 -53 0 -53 -28 -49 -27 4 -28 2 -28 -38 1 -39 2 -41 29
-37 l27 4 0 -108 c0 -119 8 -148 50 -172 51 -31 179 -14 165 22 -4 9 -9 28
-12 42 -5 24 -7 26 -33 16 -52 -20 -60 -7 -60 93 0 56 -4 90 -11 90 -6 0 -9
-32 -7 -91 2 -82 5 -93 25 -106 14 -10 33 -13 50 -9 19 5 23 4 14 -3 -11 -7
-10 -10 5 -13 18 -3 18 -4 -2 -24 -17 -17 -28 -20 -65 -14 -28 4 -43 10 -41
19 1 7 -2 10 -8 6 -6 -3 -8 -11 -5 -16 3 -5 -1 -6 -9 -3 -9 3 -12 12 -9 22 4
9 3 14 -2 10 -4 -4 -14 0 -21 10 -14 18 -19 46 -6 39 5 -4 -1 192 -7 199 -1 1
-8 5 -17 8 -8 3 -12 2 -9 -4 3 -6 2 -10 -3 -10 -13 0 -22 24 -14 36 4 5 16 14
27 20 13 7 20 22 21 47 1 44 5 49 43 52 24 2 29 -1 26 -16 -2 -11 2 -19 8 -20
7 0 3 -4 -8 -9 -18 -8 -18 -9 -2 -9 10 -1 15 -5 12 -11 -3 -5 -1 -10 4 -10 6
0 11 20 11 45 l0 45 -55 0 -55 0 0 -53z"/>
<path d="M2764 1470 c-45 -23 -64 -53 -64 -104 0 -49 31 -81 103 -105 79 -27
90 -34 85 -57 -5 -30 -72 -30 -130 -1 l-46 23 -16 -33 c-9 -19 -16 -38 -16
-43 0 -15 109 -50 158 -50 108 1 177 69 153 150 -12 39 -57 68 -143 93 -28 8
-44 19 -46 31 -8 39 42 46 111 17 l44 -19 21 38 20 39 -41 16 c-67 27 -145 29
-193 5z"/>
<path d="M2925 1209 c-4 -6 -5 -12 -2 -15 2 -3 7 2 10 11 7 17 1 20 -8 4z"/>
<path d="M3633 1479 c-32 -9 -72 -53 -60 -66 4 -3 9 2 13 11 6 17 53 46 74 46
18 0 12 -60 -7 -66 -10 -3 -31 -12 -46 -20 -16 -8 -34 -11 -40 -7 -7 3 -9 3
-5 -2 4 -4 2 -17 -4 -28 -6 -12 -14 -66 -17 -121 l-6 -101 -32 -1 -33 -1 0
174 c0 133 3 172 13 171 6 -2 15 -7 19 -13 5 -6 8 -6 8 2 0 6 9 9 20 6 11 -3
18 -9 15 -13 -3 -5 -1 -19 4 -32 8 -20 10 -17 10 20 l1 42 -55 0 -55 0 0 -189
0 -189 55 1 55 1 0 100 c0 56 3 110 6 121 7 26 39 47 84 54 34 6 34 7 35 55 0
54 -5 58 -52 45z"/>
<path d="M3880 1484 c-41 -8 -110 -36 -110 -45 0 -7 19 -56 26 -67 1 -2 19 4
39 12 69 29 137 17 155 -27 8 -21 9 -21 9 5 1 23 -6 30 -45 48 -49 21 -69 26
-45 11 10 -6 4 -9 -20 -9 -39 -1 -59 -4 -76 -15 -9 -6 -11 -3 -6 9 4 12 3 15
-5 10 -18 -11 -14 10 5 25 14 12 16 12 9 -1 -7 -13 -6 -13 6 0 15 17 26 20 88
25 59 5 112 -4 103 -18 -4 -6 -1 -7 7 -2 8 5 21 -3 36 -21 22 -27 23 -37 24
-166 l0 -138 -33 0 c-25 0 -36 6 -44 22 -9 21 -10 20 -11 -10 l-1 -32 55 0 54
0 0 135 c0 160 -13 204 -66 230 -36 17 -113 26 -154 19z"/>
<path d="M4695 1484 c-96 -23 -147 -82 -153 -178 -5 -75 16 -125 70 -169 31
-24 49 -30 105 -34 56 -4 76 -1 115 17 68 32 73 41 39 74 -28 27 -31 27 -52
12 -14 -9 -44 -16 -72 -16 -42 0 -53 5 -78 31 -16 17 -26 36 -22 42 3 5 1 7
-5 4 -17 -11 8 -63 40 -81 15 -10 33 -14 40 -10 7 4 8 3 4 -5 -6 -9 0 -10 21
-4 15 4 40 8 55 8 14 0 26 2 25 5 -4 11 14 10 32 -2 19 -11 18 -12 -2 -29 -37
-28 -127 -42 -173 -26 -23 8 -38 18 -36 27 2 10 0 11 -11 2 -11 -9 -18 -8 -31
7 -10 11 -15 24 -11 30 4 7 -1 8 -12 4 -10 -3 -15 -3 -11 2 4 4 3 14 -3 21 -5
7 -12 37 -14 67 -4 47 0 60 25 100 38 60 79 85 139 86 112 1 175 -51 183 -151
3 -41 1 -43 -26 -46 -16 -2 -33 1 -39 7 -6 6 -16 11 -21 11 -6 0 -5 -4 1 -8 7
-5 -23 -7 -66 -5 -46 2 -82 -1 -86 -7 -4 -6 40 -10 124 -10 l131 0 0 38 c-1
73 -37 139 -90 167 -29 15 -106 26 -135 19z"/>
<path d="M3070 1430 c0 -36 2 -40 26 -40 23 0 24 2 10 15 -15 16 -12 45 5 45
5 0 9 5 9 10 0 6 -11 10 -25 10 -22 0 -25 -4 -25 -40z"/>
<path d="M4342 1465 c3 -3 19 -10 37 -15 22 -6 31 -5 31 3 0 8 3 8 9 -1 4 -8
12 -13 17 -13 21 2 7 -24 -15 -27 -16 -3 -21 0 -16 9 5 8 4 10 -4 5 -6 -4 -9
-12 -6 -17 4 -5 1 -9 -5 -9 -6 0 -15 10 -21 23 -10 22 -10 22 -5 0 2 -12 -1
-24 -8 -27 -6 -2 15 -5 47 -5 l57 -1 0 40 0 40 -62 0 c-34 0 -59 -2 -56 -5z"/>
<path d="M4725 1423 c-37 -7 -67 -27 -81 -55 -16 -31 -17 -38 -6 -38 4 0 12
10 17 22 30 65 115 75 149 17 21 -35 36 -31 17 5 -15 27 -67 54 -96 49z"/>
<path d="M4301 1404 c0 -11 3 -14 6 -6 3 7 2 16 -1 19 -3 4 -6 -2 -5 -13z"/>
<path d="M588 1235 l3 -174 97 -55 c53 -30 104 -56 112 -58 8 -2 19 -8 25 -14
11 -12 29 -23 250 -142 77 -41 148 -82 158 -90 9 -9 19 -13 21 -11 2 2 7 84
11 182 5 122 4 177 -4 177 -6 0 -72 34 -148 76 -76 42 -167 92 -203 112 -36
19 -122 65 -191 103 -69 38 -127 69 -130 69 -2 0 -3 -79 -1 -175z"/>
<path d="M3800 1311 c-69 -37 -76 -140 -13 -185 36 -26 109 -32 156 -13 20 9
37 21 37 26 0 14 -17 14 -25 1 -9 -15 -22 -12 -29 6 -5 12 -2 15 9 10 9 -3 13
-2 10 4 -3 6 -2 10 3 10 4 0 18 9 31 21 17 16 21 30 20 64 -2 38 -5 43 -17 32
-8 -7 -16 -12 -16 -11 -13 11 -47 23 -42 15 5 -7 -6 -10 -30 -9 -70 3 -88 -79
-25 -114 18 -10 30 -14 26 -8 -3 5 -2 10 3 10 5 0 14 -11 20 -25 13 -28 9 -29
-68 -26 -75 4 -117 97 -67 151 36 40 58 48 135 45 40 -1 75 2 78 6 3 5 -32 9
-78 9 -62 0 -92 -5 -118 -19z"/>
<path d="M4670 1314 c59 -8 140 -8 140 -1 0 4 -37 6 -82 6 -46 -1 -72 -3 -58
-5z"/>
<path d="M5290 1235 c0 -5 5 -17 10 -25 5 -8 10 -10 10 -5 0 6 -5 17 -10 25
-5 8 -10 11 -10 5z"/>
<path d="M3181 1184 c0 -11 3 -14 6 -6 3 7 2 16 -1 19 -3 4 -6 -2 -5 -13z"/>
</g>
</svg>
