<?xml version="1.0" standalone="no"?>
<!DOCTYPE svg PUBLIC "-//W3C//DTD SVG 20010904//EN"
 "http://www.w3.org/TR/2001/REC-SVG-20010904/DTD/svg10.dtd">
<svg version="1.0" xmlns="http://www.w3.org/2000/svg"
 width="600.000000pt" height="305.000000pt" viewBox="0 0 600.000000 305.000000"
 preserveAspectRatio="xMidYMid meet">
<g transform="translate(0.000000,305.000000) scale(0.100000,-0.100000)"
fill="#e6e6e6" fill-rule="nonzero" stroke="none">
<path d="M584 2354 C587 2345 590 2266 590 2177 L590 2015 L768 1917 C865 1863 981 1798 1025 1774 C1069 1749 1134 1713 1170 1693 C1206 1673 1241 1653 1248 1648 C1257 1640 1260 1653 1260 1706 C1260 1744 1263 1825 1266 1886 L1273 1997 L1169 2052 C1112 2083 1013 2136 950 2170 C887 2204 784 2259 723 2292 C661 2324 608 2355 605 2361 C595 2376 577 2371 584 2354 z"/>
<path d="M672 2303 C693 2290 712 2280 714 2280 C717 2280 743 2266 772 2249 C801 2232 868 2195 922 2167 C975 2139 1016 2112 1013 2107 C1010 2101 1012 2100 1018 2104 C1029 2111 1049 2102 1125 2055 C1147 2041 1184 2020 1208 2009 L1250 1988 L1249 1833 L1247 1679 L1221 1685 C1207 1689 1188 1698 1180 1705 C1171 1713 1147 1727 1125 1737 C1040 1776 950 1832 957 1842 C960 1849 958 1850 952 1846 C942 1840 908 1856 795 1920 C773 1932 752 1947 749 1952 C746 1957 734 1962 722 1963 C707 1964 704 1968 711 1976 C718 1984 717 1991 709 1996 C701 2000 700 1999 704 1992 C713 1977 709 1977 669 1995 C603 2024 604 2021 601 2187 C598 2358 594 2352 672 2303 z"/>
<path d="M860 1910 C851 1904 850 1900 857 1900 C863 1900 872 1905 875 1910 C883 1922 879 1922 860 1910 z"/>
<path d="M1753 1907 C1687 1809 1671 1786 1490 1529 C1427 1439 1371 1360 1367 1353 C1362 1345 1379 1312 1413 1263 C1560 1048 1633 951 1643 957 C1649 960 1650 958 1646 952 C1640 943 1745 772 1770 750 C1773 747 1785 733 1795 717 L1815 689 L2013 687 C2185 685 2234 689 2201 702 C2194 705 2069 879 1956 1045 C1933 1078 1912 1107 1909 1110 C1906 1113 1871 1163 1832 1222 C1793 1280 1755 1331 1748 1334 C1737 1339 1737 1341 1748 1346 C1755 1349 1778 1377 1799 1408 C1892 1547 2066 1795 2130 1883 C2155 1917 2183 1957 2193 1973 L2210 2000 L2013 2000 L1815 2000 L1753 1907 z"/>
<path d="M2163 1973 C2167 1970 2161 1957 2151 1946 C2140 1934 2131 1923 2131 1920 C2131 1917 2128 1907 2124 1897 C2119 1883 2115 1882 2104 1891 C2092 1901 2091 1900 2096 1887 C2103 1868 2048 1786 2036 1797 C2032 1801 2032 1796 2036 1785 C2042 1770 2040 1768 2026 1773 C2016 1777 2011 1776 2015 1769 C2022 1759 2003 1725 1975 1696 C1966 1687 1961 1680 1964 1680 C1973 1680 1935 1622 1902 1585 C1884 1566 1870 1547 1870 1543 C1870 1538 1857 1519 1842 1500 C1826 1481 1807 1454 1800 1441 C1790 1422 1786 1420 1778 1431 C1771 1441 1770 1440 1774 1425 C1778 1412 1771 1395 1755 1378 C1741 1363 1730 1349 1730 1346 C1730 1332 1779 1272 1785 1278 C1789 1282 1785 1272 1775 1255 C1761 1230 1760 1228 1775 1245 C1790 1264 1792 1264 1801 1248 C1806 1238 1812 1227 1812 1223 C1813 1218 1831 1193 1852 1165 C1873 1138 1890 1110 1890 1103 C1890 1096 1896 1087 1904 1083 C1911 1079 1930 1055 1945 1030 C1960 1005 1976 983 1980 980 C1983 977 1998 959 2013 939 C2034 911 2037 901 2027 891 C2018 881 2018 880 2030 884 C2040 888 2056 873 2080 838 C2099 809 2127 770 2142 752 C2158 734 2170 715 2170 710 C2170 704 2105 700 2006 700 C1856 700 1841 702 1816 721 C1802 732 1790 748 1790 756 C1790 764 1786 770 1781 770 C1776 770 1751 802 1725 840 C1699 879 1673 913 1669 916 C1664 919 1660 929 1660 938 C1660 948 1652 963 1643 972 C1610 1003 1599 1020 1605 1030 C1609 1036 1607 1039 1602 1038 C1591 1034 1525 1119 1515 1149 C1512 1161 1504 1167 1498 1164 C1491 1159 1489 1163 1493 1173 C1496 1182 1495 1189 1491 1187 C1486 1186 1481 1190 1480 1195 C1479 1201 1464 1223 1446 1245 C1428 1267 1406 1299 1397 1316 C1381 1346 1382 1348 1416 1398 C1435 1427 1455 1450 1461 1450 C1467 1450 1469 1454 1466 1458 C1463 1463 1470 1472 1480 1480 C1490 1488 1497 1497 1494 1502 C1488 1512 1569 1615 1584 1615 C1590 1615 1594 1624 1593 1634 C1592 1644 1608 1674 1628 1701 C1649 1727 1679 1768 1695 1791 C1712 1814 1740 1853 1758 1877 C1775 1901 1790 1925 1790 1930 C1790 1936 1801 1938 1815 1936 C1837 1932 1839 1934 1830 1950 C1824 1960 1820 1971 1820 1974 C1820 1982 2155 1981 2163 1973 z"/>
<path d="M1820 1950 C1820 1945 1818 1940 1816 1940 C1813 1940 1808 1945 1805 1950 C1802 1956 1804 1960 1809 1960 C1815 1960 1820 1956 1820 1950 z"/>
<path d="M2084 1918 C2080 1911 2080 1908 2085 1912 C2089 1916 2100 1914 2109 1907 C2123 1896 2123 1897 2111 1913 C2095 1933 2093 1934 2084 1918 z"/>
<path d="M1663 1717 C1655 1700 1655 1693 1663 1693 C1670 1693 1676 1704 1676 1717 C1678 1746 1676 1746 1663 1717 z"/>
<path d="M1556 1563 C1550 1549 1551 1548 1561 1557 C1568 1564 1571 1572 1568 1575 C1565 1578 1559 1573 1556 1563 z"/>
<path d="M1496 1463 C1490 1449 1491 1448 1501 1457 C1508 1464 1511 1472 1508 1475 C1505 1478 1499 1473 1496 1463 z"/>
<path d="M1586 1117 C1589 1107 1595 1102 1598 1105 C1601 1108 1598 1116 1591 1123 C1581 1132 1580 1131 1586 1117 z"/>
<path d="M1560 1106 C1560 1104 1568 1096 1578 1089 C1593 1076 1594 1077 1581 1093 C1568 1109 1560 1114 1560 1106 z"/>
<path d="M590 1705 C595 1530 595 1530 620 1517 C664 1494 1105 1248 1115 1240 C1152 1214 1282 1149 1271 1163 C1260 1176 1259 1214 1264 1347 L1270 1515 L1168 1569 C1111 1599 1036 1640 1000 1660 C964 1681 892 1720 840 1748 C788 1776 712 1817 671 1839 C630 1862 594 1880 591 1880 C588 1880 587 1801 590 1705 z"/>
<path d="M650 1831 C660 1819 795 1756 805 1759 C811 1760 812 1759 808 1755 C799 1746 822 1720 833 1727 C837 1729 862 1719 888 1704 C914 1688 938 1677 943 1678 C947 1679 950 1675 950 1670 C950 1665 957 1660 966 1660 C974 1660 979 1656 976 1651 C970 1641 1018 1618 1030 1625 C1035 1628 1041 1626 1044 1621 C1048 1616 1075 1599 1105 1584 C1135 1568 1160 1552 1160 1548 C1160 1544 1167 1540 1176 1540 C1185 1540 1204 1531 1219 1521 L1247 1501 L1247 1351 C1248 1231 1245 1200 1234 1196 C1226 1193 1220 1196 1220 1202 C1220 1208 1217 1211 1214 1207 C1211 1204 1185 1216 1157 1234 C1128 1252 1077 1282 1043 1300 C1008 1318 983 1337 987 1343 C991 1349 988 1350 981 1346 C974 1341 944 1353 910 1374 C878 1394 847 1410 841 1410 C835 1410 830 1415 830 1420 C830 1426 823 1430 814 1430 C805 1430 802 1435 806 1442 C810 1449 809 1450 801 1446 C795 1442 777 1446 762 1456 C747 1466 710 1487 680 1503 C650 1520 620 1540 613 1549 C605 1560 601 1612 600 1713 L600 1861 L623 1849 C635 1842 647 1834 650 1831 z"/>
<path d="M5038 1374 C5036 1233 5038 1114 5041 1108 C5045 1103 5069 1100 5096 1102 L5144 1105 L5141 1154 C5139 1195 5142 1206 5166 1231 L5193 1259 L5209 1231 C5218 1216 5238 1180 5254 1152 L5283 1100 L5347 1101 C5381 1102 5410 1105 5410 1107 C5410 1112 5353 1203 5299 1281 L5261 1337 L5331 1406 C5369 1444 5400 1477 5400 1480 C5400 1483 5373 1483 5340 1482 C5283 1478 5278 1476 5230 1426 C5180 1374 5145 1330 5153 1330 C5155 1330 5189 1362 5227 1400 C5276 1449 5305 1470 5322 1470 C5336 1470 5350 1467 5353 1463 C5357 1460 5335 1431 5305 1399 C5275 1367 5250 1337 5250 1331 C5250 1325 5259 1312 5269 1303 C5280 1294 5286 1281 5283 1274 C5280 1266 5285 1257 5294 1254 C5303 1251 5310 1243 5310 1238 C5310 1232 5326 1206 5345 1180 C5364 1154 5380 1130 5380 1126 C5380 1123 5363 1120 5342 1120 C5303 1120 5270 1143 5270 1169 C5270 1176 5266 1178 5260 1175 C5246 1166 5248 1183 5263 1200 C5273 1212 5272 1212 5258 1201 C5244 1191 5241 1192 5235 1212 C5208 1299 5131 1266 5130 1168 C5130 1120 5130 1120 5096 1120 C5077 1120 5059 1124 5055 1130 C5052 1135 5052 1243 5056 1370 L5063 1600 L5097 1600 L5131 1600 L5129 1479 C5129 1413 5131 1356 5134 1353 C5140 1346 5141 1351 5143 1522 L5145 1630 L5093 1630 L5041 1630 L5038 1374 z"/>
<path d="M2210 1351 L2210 1101 L2400 1101 L2590 1101 L2590 1151 L2590 1201 L2455 1198 L2320 1195 L2320 1250 L2320 1305 L2440 1302 L2560 1299 L2560 1349 L2560 1400 L2440 1400 L2320 1400 L2320 1453 L2320 1505 L2452 1505 L2583 1505 L2583 1550 L2583 1595 L2397 1598 L2210 1600 L2210 1351 z"/>
<path d="M2567 1553 L2565 1525 L2440 1520 L2315 1515 L2315 1450 L2315 1385 L2403 1385 C2451 1385 2490 1381 2490 1376 C2490 1371 2496 1373 2504 1379 C2515 1389 2521 1386 2533 1369 C2562 1328 2547 1321 2427 1318 L2315 1315 L2312 1256 C2310 1224 2313 1193 2319 1187 C2324 1182 2382 1178 2448 1179 C2555 1181 2568 1179 2572 1163 C2583 1122 2575 1120 2397 1120 L2225 1120 L2225 1339 C2225 1482 2228 1556 2235 1552 C2241 1549 2239 1554 2231 1563 C2218 1579 2229 1580 2393 1580 L2569 1580 L2567 1553 z"/>
<path d="M3129 1508 C3131 1473 3135 1454 3138 1464 C3141 1479 3144 1480 3152 1469 C3159 1459 3160 1460 3155 1475 C3141 1514 3140 1525 3148 1538 C3157 1552 3209 1562 3211 1551 C3212 1548 3213 1529 3214 1510 C3217 1456 3226 1448 3276 1453 C3301 1455 3323 1453 3327 1447 C3330 1441 3328 1440 3321 1444 C3313 1450 3311 1444 3316 1426 C3322 1401 3321 1400 3296 1410 C3276 1417 3271 1417 3276 1409 C3280 1402 3276 1400 3264 1404 C3226 1416 3217 1397 3216 1297 C3215 1203 3216 1201 3242 1185 C3259 1175 3279 1172 3295 1176 C3315 1181 3319 1179 3314 1166 C3311 1157 3313 1150 3320 1150 C3327 1150 3326 1144 3316 1134 C3307 1126 3295 1122 3289 1126 C3282 1130 3280 1129 3283 1123 C3287 1117 3275 1114 3252 1116 C3232 1118 3214 1120 3213 1121 C3211 1122 3206 1123 3201 1124 C3183 1126 3149 1170 3156 1182 C3160 1189 3159 1190 3152 1186 C3144 1181 3141 1210 3142 1285 C3142 1343 3140 1393 3136 1397 C3125 1408 3129 1182 3141 1157 C3164 1106 3244 1086 3316 1112 C3346 1123 3347 1125 3338 1154 C3333 1171 3326 1191 3324 1199 C3320 1210 3317 1211 3308 1202 C3292 1186 3255 1187 3243 1203 C3238 1209 3232 1251 3231 1294 C3230 1338 3226 1378 3224 1382 C3221 1386 3246 1390 3279 1390 L3340 1390 L3340 1431 L3340 1471 L3288 1469 L3235 1466 L3235 1518 L3235 1570 L3180 1570 L3125 1570 L3129 1508 z"/>
<path d="M4250 1517 C4250 1464 4250 1464 4222 1468 C4195 1472 4194 1470 4194 1430 C4195 1391 4196 1389 4223 1393 L4250 1397 L4250 1289 C4250 1170 4258 1141 4300 1117 C4351 1086 4479 1103 4465 1139 C4461 1148 4456 1167 4453 1181 C4448 1205 4446 1207 4420 1197 C4368 1177 4360 1190 4360 1290 C4360 1346 4356 1380 4349 1380 C4343 1380 4340 1348 4342 1289 C4344 1207 4347 1196 4367 1183 C4381 1173 4400 1170 4417 1174 C4436 1179 4440 1178 4431 1171 C4420 1164 4421 1161 4436 1158 C4454 1155 4454 1154 4434 1134 C4417 1117 4406 1114 4369 1120 C4341 1124 4326 1130 4328 1139 C4329 1146 4326 1149 4320 1145 C4314 1142 4312 1134 4315 1129 C4318 1124 4314 1123 4306 1126 C4297 1129 4294 1138 4297 1148 C4301 1157 4300 1162 4295 1158 C4291 1154 4281 1158 4274 1168 C4260 1186 4255 1214 4268 1207 C4273 1203 4267 1399 4261 1406 C4260 1407 4253 1411 4244 1414 C4236 1417 4232 1416 4235 1410 C4238 1404 4237 1400 4232 1400 C4219 1400 4210 1424 4218 1436 C4222 1441 4234 1450 4245 1456 C4258 1463 4265 1478 4266 1503 C4267 1547 4271 1552 4309 1555 C4333 1557 4338 1554 4335 1539 C4333 1528 4337 1520 4343 1519 C4350 1519 4346 1515 4335 1510 C4317 1502 4317 1501 4333 1501 C4343 1500 4348 1496 4345 1490 C4342 1485 4344 1480 4349 1480 C4355 1480 4360 1500 4360 1525 L4360 1570 L4305 1570 L4250 1570 L4250 1517 z"/>
<path d="M2764 1470 C2719 1447 2700 1417 2700 1366 C2700 1317 2731 1285 2803 1261 C2882 1234 2893 1227 2888 1204 C2883 1174 2816 1174 2758 1203 L2712 1226 L2696 1193 C2687 1174 2680 1155 2680 1150 C2680 1135 2789 1100 2838 1100 C2946 1101 3015 1169 2991 1250 C2979 1289 2934 1318 2848 1343 C2820 1351 2804 1362 2802 1374 C2794 1413 2844 1420 2913 1391 L2957 1372 L2978 1410 L2998 1449 L2957 1465 C2890 1492 2812 1494 2764 1470 z"/>
<path d="M2886 1471 C2883 1466 2898 1460 2921 1456 C2960 1450 2987 1421 2962 1412 C2955 1410 2952 1404 2956 1399 C2963 1386 2953 1388 2917 1404 C2839 1438 2790 1430 2790 1381 C2790 1347 2803 1335 2849 1325 C2874 1320 2879 1315 2869 1308 C2859 1301 2861 1300 2877 1305 C2902 1312 2937 1296 2960 1267 C2977 1247 2979 1201 2964 1166 C2957 1147 2956 1147 2949 1166 C2943 1182 2941 1181 2941 1159 C2940 1138 2933 1130 2913 1125 C2874 1115 2791 1113 2797 1123 C2799 1127 2790 1130 2776 1130 C2747 1130 2700 1149 2700 1162 C2700 1166 2704 1170 2710 1170 C2715 1170 2717 1177 2714 1185 C2707 1203 2717 1204 2751 1186 C2819 1151 2896 1156 2906 1197 C2913 1225 2884 1264 2863 1255 C2855 1253 2851 1254 2854 1259 C2860 1269 2830 1284 2822 1275 C2819 1272 2823 1270 2830 1270 C2837 1270 2841 1267 2838 1264 C2830 1256 2760 1293 2731 1321 C2700 1350 2707 1402 2747 1436 C2776 1462 2792 1467 2850 1473 C2869 1475 2886 1478 2888 1478 C2890 1479 2889 1476 2886 1471 z"/>
<path d="M2925 1209 C2921 1203 2920 1197 2923 1194 C2925 1191 2930 1196 2933 1205 C2940 1222 2934 1225 2925 1209 z"/>
<path d="M3633 1479 C3601 1470 3561 1426 3573 1413 C3577 1410 3582 1415 3586 1424 C3592 1441 3639 1470 3660 1470 C3678 1470 3672 1410 3653 1404 C3643 1401 3622 1392 3607 1384 C3591 1376 3573 1373 3567 1377 C3560 1380 3558 1380 3562 1375 C3566 1371 3564 1358 3558 1347 C3552 1335 3544 1281 3541 1226 L3535 1125 L3503 1124 L3470 1123 L3470 1297 C3470 1430 3473 1469 3483 1468 C3489 1466 3498 1461 3502 1455 C3507 1449 3510 1449 3510 1457 C3510 1463 3519 1466 3530 1463 C3541 1460 3548 1454 3545 1450 C3542 1445 3544 1431 3549 1418 C3557 1398 3559 1401 3559 1438 L3560 1480 L3505 1480 L3450 1480 L3450 1291 L3450 1102 L3505 1103 L3560 1104 L3560 1204 C3560 1260 3563 1314 3566 1325 C3573 1351 3605 1372 3650 1379 C3684 1385 3684 1386 3685 1434 C3685 1488 3680 1492 3633 1479 z"/>
<path d="M3880 1484 C3839 1476 3770 1448 3770 1439 C3770 1432 3789 1383 3796 1372 C3797 1370 3815 1376 3835 1384 C3904 1413 3972 1401 3990 1357 C3998 1336 3999 1336 3999 1362 C4000 1385 3993 1392 3954 1410 C3905 1431 3885 1436 3909 1421 C3919 1415 3913 1412 3889 1412 C3850 1411 3830 1408 3813 1397 C3804 1391 3802 1394 3807 1406 C3811 1418 3810 1421 3802 1416 C3784 1405 3788 1426 3807 1441 C3821 1453 3823 1453 3816 1440 C3809 1427 3810 1427 3822 1440 C3837 1457 3848 1460 3910 1465 C3969 1470 4022 1461 4013 1447 C4009 1441 4012 1440 4020 1445 C4028 1450 4041 1442 4056 1424 C4078 1397 4079 1387 4080 1258 L4080 1120 L4047 1120 C4022 1120 4011 1126 4003 1142 C3994 1163 3993 1162 3992 1132 L3991 1100 L4046 1100 L4054 1120 L4080 1120 L4080 1258 L4080 1395 L4060 1410 L4040 1425 L4050 1404 C4080 1340 4060 1100 4030 1100 L4080 1100 z"/>
<path d="M4695 1484 C4599 1461 4548 1402 4542 1306 C4537 1231 4558 1181 4612 1137 C4643 1113 4661 1107 4717 1103 C4773 1099 4793 1102 4832 1120 C4900 1152 4905 1161 4871 1194 C4843 1221 4840 1221 4819 1206 C4805 1197 4775 1190 4747 1190 C4705 1190 4694 1195 4669 1221 C4653 1238 4643 1257 4647 1263 C4650 1268 4648 1270 4642 1267 C4625 1256 4650 1204 4682 1186 C4697 1176 4715 1172 4722 1176 C4729 1180 4730 1179 4726 1171 C4720 1162 4726 1161 4747 1167 C4762 1171 4787 1175 4802 1175 C4816 1175 4828 1177 4827 1180 C4823 1191 4841 1190 4859 1178 C4878 1167 4877 1166 4857 1149 C4820 1121 4730 1107 4684 1123 C4661 1131 4646 1141 4648 1150 C4650 1160 4648 1161 4637 1152 C4626 1143 4619 1144 4606 1159 C4596 1170 4591 1183 4595 1189 C4599 1196 4594 1197 4583 1193 C4573 1190 4568 1190 4572 1195 C4576 1199 4575 1209 4569 1216 C4564 1223 4557 1253 4555 1283 C4551 1330 4555 1343 4580 1383 C4618 1443 4659 1468 4719 1469 C4831 1470 4894 1418 4902 1318 C4905 1277 4903 1275 4876 1272 C4860 1270 4843 1273 4837 1279 C4831 1285 4821 1290 4816 1290 C4810 1290 4811 1286 4817 1282 C4824 1277 4794 1275 4751 1277 C4705 1279 4669 1276 4665 1270 C4661 1264 4705 1260 4789 1260 L4920 1260 L4920 1298 C4919 1371 4883 1437 4830 1465 C4801 1480 4724 1491 4695 1484 z"/>
<path d="M3070 1430 C3070 1394 3072 1390 3096 1390 C3119 1390 3120 1392 3106 1405 C3091 1421 3094 1450 3111 1450 C3116 1450 3120 1455 3120 1460 C3120 1466 3109 1470 3095 1470 C3073 1470 3070 1466 3070 1430 z"/>
<path d="M4342 1465 C4345 1462 4361 1455 4379 1450 C4401 1444 4410 1445 4410 1453 C4410 1461 4413 1461 4419 1452 C4423 1444 4431 1439 4436 1439 C4457 1441 4443 1415 4421 1412 C4405 1409 4400 1412 4405 1421 C4410 1429 4409 1431 4401 1426 C4395 1422 4392 1414 4395 1409 C4399 1404 4396 1400 4390 1400 C4384 1400 4375 1410 4369 1423 C4359 1445 4359 1445 4364 1423 C4366 1411 4363 1399 4356 1396 C4350 1394 4371 1391 4403 1391 L4460 1390 L4460 1430 L4460 1470 L4398 1470 C4364 1470 4339 1468 4342 1465 z"/>
<path d="M4725 1423 C4688 1416 4658 1396 4644 1368 C4628 1337 4627 1330 4638 1330 C4642 1330 4650 1340 4655 1352 C4685 1417 4770 1427 4804 1369 C4825 1334 4840 1338 4821 1374 C4806 1401 4754 1428 4725 1423 z"/>
<path d="M4301 1404 C4301 1393 4304 1390 4307 1398 C4310 1405 4309 1414 4306 1417 C4303 1421 4300 1415 4301 1404 z"/>
<path d="M588 1235 L591 1061 L688 1006 C741 976 792 950 800 948 C808 946 819 940 825 934 C836 922 854 911 1075 792 C1152 751 1223 710 1233 702 C1242 693 1252 689 1254 691 C1256 693 1261 775 1265 873 C1270 995 1269 1050 1261 1050 C1255 1050 1189 1084 1113 1126 C1037 1168 946 1218 910 1238 C874 1257 788 1303 719 1341 C650 1379 592 1410 589 1410 C587 1410 586 1331 588 1235 z"/>
<path d="M620 1382 C620 1378 629 1370 639 1365 C850 1255 863 1247 852 1235 C848 1230 850 1230 856 1233 C869 1240 924 1216 953 1192 C962 1184 970 1181 970 1186 C970 1191 974 1190 978 1185 C982 1179 998 1169 1013 1162 C1028 1155 1038 1145 1035 1140 C1032 1135 1035 1132 1042 1135 C1061 1141 1125 1106 1122 1091 C1121 1084 1124 1082 1131 1086 C1137 1090 1167 1080 1196 1064 L1249 1035 L1249 872 L1249 709 L1212 731 C1148 770 1140 777 1148 785 C1152 790 1150 790 1144 787 C1132 780 1079 803 1043 830 C1028 842 1024 850 1031 857 C1039 865 1038 870 1029 875 C1022 880 1019 879 1023 873 C1033 857 1002 848 979 860 C955 873 954 881 978 874 C992 869 992 870 980 878 C972 884 962 886 958 884 C953 881 933 889 912 902 C892 914 871 924 866 922 C861 920 862 926 870 934 C877 943 881 950 879 951 C877 952 858 954 837 955 C817 957 787 967 772 978 C757 988 730 1002 713 1009 C695 1017 680 1027 680 1032 C680 1037 676 1038 670 1035 C665 1032 660 1032 660 1037 C660 1041 647 1052 631 1061 L603 1077 L602 1234 C601 1329 604 1390 610 1390 C616 1390 620 1387 620 1382 z"/>
<path d="M870 946 C870 944 863 939 854 936 C846 933 842 934 845 940 C851 950 870 954 870 946 z"/>
<path d="M3800 1311 C3731 1274 3724 1171 3787 1126 C3823 1100 3896 1094 3943 1113 C3963 1122 3980 1134 3980 1139 C3980 1153 3963 1153 3955 1140 C3946 1125 3933 1128 3926 1146 C3921 1158 3924 1161 3935 1156 C3944 1153 3948 1154 3945 1160 C3942 1166 3943 1170 3948 1170 C3952 1170 3966 1179 3979 1191 C3996 1207 4000 1221 3999 1255 C3997 1293 3994 1298 3982 1287 C3974 1280 3966 1275 3966 1276 C3953 1287 3919 1299 3924 1291 C3929 1284 3918 1281 3894 1282 C3824 1285 3806 1203 3869 1168 C3887 1158 3899 1154 3895 1160 C3892 1165 3893 1170 3898 1170 C3903 1170 3912 1159 3918 1145 C3931 1117 3927 1116 3850 1119 C3775 1123 3733 1216 3783 1270 C3819 1310 3841 1318 3918 1315 C3958 1314 3993 1317 3996 1321 C3999 1326 3964 1330 3918 1330 C3856 1330 3826 1325 3800 1311 z"/>
<path d="M3990 1241 C3990 1204 3970 1189 3917 1183 C3866 1178 3848 1189 3848 1225 C3848 1261 3864 1270 3933 1270 C3989 1270 3990 1270 3990 1241 z"/>
<path d="M4670 1314 C4729 1306 4810 1306 4810 1313 C4810 1317 4773 1319 4728 1319 C4682 1318 4656 1316 4670 1314 z"/>
<path d="M5290 1235 C5290 1230 5295 1218 5300 1210 C5305 1202 5310 1200 5310 1205 C5310 1211 5305 1222 5300 1230 C5295 1238 5290 1241 5290 1235 z"/>
<path d="M3181 1184 C3181 1173 3184 1170 3187 1178 C3190 1185 3189 1194 3186 1197 C3183 1201 3180 1195 3181 1184 z"/>
</g>
</svg>
